<?xml version="1.0" encoding="UTF-8" standalone="no"?>
<!-- Created with Inkscape (http://www.inkscape.org/) -->

<svg
   xmlns:dc="http://purl.org/dc/elements/1.1/"
   xmlns:cc="http://creativecommons.org/ns#"
   xmlns:rdf="http://www.w3.org/1999/02/22-rdf-syntax-ns#"
   xmlns:svg="http://www.w3.org/2000/svg"
   xmlns="http://www.w3.org/2000/svg"
   xmlns:sodipodi="http://sodipodi.sourceforge.net/DTD/sodipodi-0.dtd"
   xmlns:inkscape="http://www.inkscape.org/namespaces/inkscape"
   width="594.63281"
   height="127.33594"
   id="svg2"
   version="1.1"
   inkscape:version="0.48.3.1 r9886"
   inkscape:export-filename="/home/cympfh/Pictures/hoge.svg.png"
   inkscape:export-xdpi="90"
   inkscape:export-ydpi="90"
   sodipodi:docname="alicelips.svg">
  <defs
     id="defs4" />
  <sodipodi:namedview
     id="base"
     pagecolor="#ffffff"
     bordercolor="#666666"
     borderopacity="1.0"
     stroke="#403a3a"
     inkscape:pageopacity="0.0"
     inkscape:pageshadow="2"
     inkscape:zoom="2.11"
     inkscape:cx="335.29988"
     inkscape:cy="-55.548772"
     inkscape:document-units="px"
     inkscape:current-layer="text3012"
     showgrid="false"
     inkscape:window-width="1920"
     inkscape:window-height="1058"
     inkscape:window-x="1920"
     inkscape:window-y="0"
     inkscape:window-maximized="0"
     fit-margin-top="0"
     fit-margin-left="0"
     fit-margin-right="0"
     fit-margin-bottom="0" />
  <metadata
     id="metadata7">
    <rdf:RDF>
      <cc:Work
         rdf:about="">
        <dc:format>image/svg+xml</dc:format>
        <dc:type
           rdf:resource="http://purl.org/dc/dcmitype/StillImage" />
        <dc:title />
      </cc:Work>
    </rdf:RDF>
  </metadata>
  <g
     inkscape:label="Layer 1"
     inkscape:groupmode="layer"
     id="layer1"
     transform="translate(-2.4000242,-3.5172695)">
    <flowRoot
       xml:space="preserve"
       id="flowRoot3004"
       style="font-size:40px;font-style:normal;font-weight:normal;line-height:125%;letter-spacing:0px;word-spacing:0px;fill:#302020;fill-opacity:1;stroke:none;font-family:Bauhaus 93;-inkscape-font-specification:Bauhaus 93"><flowRegion
         id="flowRegion3006"><rect
           id="rect3008"
           width="537.85712"
           height="153.57143"
           x="80.714287"
           y="128.79076" /></flowRegion><flowPara
         id="flowPara3010" /></flowRoot>    <g
       style="font-size:40px;font-style:normal;font-weight:normal;line-height:125%;letter-spacing:0px;word-spacing:0px;fill:#302020;fill-opacity:1;stroke:none;font-family:Bauhaus 93;-inkscape-font-specification:Bauhaus 93"
       id="text3012"
       transform="translate(-3.3175355,-3.7914692)">
      <path
         d="m 42.490997,60.535301 0,25.3125 -8.226562,0 0,22.851559 -28.5468753,0 0,-61.031246 c -7.7e-6,-11.812427 3.2109266,-20.976481 9.6328123,-27.492188 6.468726,-6.562405 15.53903,-9.843651 27.210938,-9.84375 11.249944,9.9e-5 19.570248,2.976658 24.960937,8.929688 5.39055,5.906333 8.08586,15.046949 8.085938,27.421875 l 0,62.015621 -28.546875,0 0,-60.117184 c -4.9e-5,-3.749936 -0.445361,-6.351496 -1.335938,-7.804687 -0.890672,-1.453056 -2.48442,-2.179618 -4.78125,-2.179688 -4.453163,7e-5 -6.679724,3.328192 -6.679687,9.984375 l 0,11.953125 8.226562,0"
         style="font-size:144px"
         id="path3036"
         inkscape:connector-curvature="0" />
      <path
         d="m 117.23318,12.722801 0,95.976559 -26.29687,0 0,-95.976559 26.29687,0"
         style="font-size:144px"
         id="path3038"
         inkscape:connector-curvature="0" />
      <path
         d="m 158.85818,38.597801 0,70.101559 -26.29687,0 0,-70.101559 26.29687,0 M 145.78006,7.3087387 c 3.56248,1.014e-4 6.63278,1.2657251 9.21094,3.7968753 2.62496,2.48447 3.93746,5.437592 3.9375,8.859375 -4e-5,3.656335 -1.24222,6.656332 -3.72657,9 -2.43752,2.343827 -5.57815,3.515701 -9.42187,3.515625 -3.84377,7.6e-5 -7.00783,-1.171798 -9.49219,-3.515625 -2.43751,-2.343668 -3.65626,-5.343665 -3.65625,-9 -1e-5,-3.421783 1.28906,-6.374905 3.86719,-8.859375 2.62499,-2.5311502 5.71873,-3.7967739 9.28125,-3.7968753"
         style="font-size:144px"
         id="path3040"
         inkscape:connector-curvature="0" />
      <path
         d="m 217.49881,76.425926 26.08594,-0.984375 c -0.75008,10.125023 -4.52351,18.445328 -11.32032,24.960939 -6.79693,6.51563 -15.07036,9.77343 -24.82031,9.77344 -10.31253,-10e-6 -19.03127,-3.58594 -26.15625,-10.757816 -7.07813,-7.171859 -10.61719,-15.960913 -10.61719,-26.367188 0,-9.890579 3.58593,-18.351508 10.75782,-25.382812 7.17185,-7.031182 15.7734,-10.546804 25.80468,-10.546875 8.76558,7.1e-5 16.49995,2.765694 23.20313,8.296875 6.70305,5.531307 10.87493,12.585988 12.51562,21.164062 l -26.64843,0.984375 c -2.29693,-2.999956 -5.20317,-4.499954 -8.71875,-4.5 -3.00004,4.6e-5 -5.46098,0.98442 -7.38282,2.953125 -1.9219,1.968791 -2.88284,4.453163 -2.88281,7.453125 -3e-5,3.046907 1.00778,5.601592 3.02344,7.664063 2.06246,2.062525 4.61715,3.093774 7.66406,3.09375 4.45308,2.4e-5 7.61714,-2.601536 9.49219,-7.804688"
         style="font-size:144px"
         id="path3042"
         inkscape:connector-curvature="0" />
      <path
         d="m 324.09256,77.902489 -39.86719,0 c -0.60941,-2.015592 -0.9141,-3.867153 -0.91406,-5.554688 -4e-5,-2.343711 0.42184,-4.640584 1.26562,-6.890625 l 13.35938,0 c -0.93755,-5.203076 -3.86723,-7.804636 -8.78906,-7.804687 -3.28129,5.1e-5 -5.95316,1.406299 -8.01563,4.21875 -2.06253,2.765669 -3.09378,6.328165 -3.09375,10.6875 -3e-5,4.546906 0.98435,8.22659 2.95313,11.039062 2.01559,2.812522 4.64058,4.218771 7.875,4.21875 2.62495,2.1e-5 5.1562,-1.312478 7.59375,-3.9375 l 14.97656,17.999999 c -6.98443,5.48438 -14.74224,8.22656 -23.27344,8.22656 -10.40628,0 -19.14846,-3.49218 -26.22656,-10.476559 -7.07813,-6.984359 -10.61719,-15.632788 -10.61719,-25.945312 0,-10.26558 3.56249,-18.937446 10.6875,-26.015625 7.17186,-7.078057 15.96091,-10.617116 26.36719,-10.617188 10.17182,7.2e-5 18.70307,3.468818 25.59375,10.40625 6.93743,6.89068 10.40617,15.398484 10.40625,25.523438 -8e-5,1.031284 -0.0938,2.671908 -0.28125,4.921875"
         style="font-size:144px"
         id="path3044"
         inkscape:connector-curvature="0" />
      <path
         d="m 354.53787,77.199364 c 4.59372,3.1e-5 8.53122,1.664092 11.8125,4.992187 3.32808,3.328148 4.99215,7.289082 4.99219,11.882813 -4e-5,4.59376 -1.64067,8.507816 -4.92188,11.742186 -3.28128,3.1875 -7.24221,4.78125 -11.88281,4.78125 -4.82815,0 -8.81252,-1.54687 -11.95312,-4.64062 -3.09376,-3.14062 -4.64064,-7.124994 -4.64063,-11.953129 -10e-6,-4.68748 1.61718,-8.648414 4.85156,-11.882812 3.23436,-3.28122 7.14842,-4.921844 11.74219,-4.921875"
         style="font-size:144px"
         id="path3046"
         inkscape:connector-curvature="0" />
      <path
         d="m 415.92068,12.722801 0,95.976559 -26.29687,0 0,-95.976559 26.29687,0"
         style="font-size:144px"
         id="path3048"
         inkscape:connector-curvature="0" />
      <path
         d="m 457.54568,38.597801 0,70.101559 -26.29687,0 0,-70.101559 26.29687,0 M 444.46756,7.3087387 c 3.56248,1.014e-4 6.63278,1.2657251 9.21094,3.7968753 2.62496,2.48447 3.93746,5.437592 3.9375,8.859375 -4e-5,3.656335 -1.24222,6.656332 -3.72657,9 -2.43752,2.343827 -5.57815,3.515701 -9.42187,3.515625 -3.84377,7.6e-5 -7.00783,-1.171798 -9.49219,-3.515625 -2.43751,-2.343668 -3.65626,-5.343665 -3.65625,-9 -10e-6,-3.421783 1.28906,-6.374905 3.86719,-8.859375 2.62499,-2.5311502 5.71873,-3.7967739 9.28125,-3.7968753"
         style="font-size:144px"
         id="path3050"
         inkscape:connector-curvature="0" />
      <path
         d="m 497.90506,134.64468 -26.29688,0 0,-58.500004 c 0,-10.734332 2.8125,-19.47651 8.4375,-26.226562 3.23436,-3.890563 7.33592,-6.98431 12.30469,-9.28125 5.0156,-2.296805 10.1484,-3.445241 15.39844,-3.445313 10.45307,7.2e-5 19.26556,3.515693 26.4375,10.546875 7.1718,7.031304 10.75773,15.656296 10.75781,25.875 -8e-5,9.937525 -3.56257,18.515642 -10.6875,25.734375 -7.12506,7.218749 -15.56255,10.828119 -25.3125,10.828129 -1.59379,-10e-6 -3.93754,-0.16407 -7.03125,-0.49219 l 0,-28.968751 c 2.15621,1.734401 4.31246,2.601588 6.46875,2.601562 2.71871,2.6e-5 5.03902,-1.007786 6.96094,-3.023437 1.9687,-2.015595 2.95307,-4.406217 2.95312,-7.171875 -5e-5,-2.765587 -1.00786,-5.109335 -3.02343,-7.03125 -2.01568,-1.968706 -4.42974,-2.95308 -7.24219,-2.953125 -6.75004,4.5e-5 -10.12503,4.664103 -10.125,13.992187 l 0,57.515629"
         style="font-size:144px"
         id="path3052"
         inkscape:connector-curvature="0" />
      <path
         d="m 600.35037,39.582176 0,27.703125 c -3.70317,4.2e-5 -6.25786,0.703166 -7.66406,2.109375 -1.35942,1.359413 -2.2266,4.07816 -2.60156,8.15625 -1.21879,13.546893 -6.46879,23.109384 -15.75,28.687504 -4.9219,2.90625 -11.90627,4.35937 -20.95313,4.35937 l -3.65625,0 0,-27.843749 1.19531,0 c 4.21875,2.6e-5 7.21875,-0.86716 9,-2.601562 1.82812,-1.78122 2.8828,-4.874967 3.16407,-9.28125 0.37498,-7.17183 1.03123,-12.210888 1.96875,-15.117188 0.98435,-2.906194 2.9531,-5.789004 5.90625,-8.648437 5.15622,-5.015559 12.30465,-7.523369 21.44531,-7.523438 l 7.94531,0"
         style="font-size:144px"
         id="path3054"
         inkscape:connector-curvature="0" />
    </g>
  </g>
</svg>
